# xmcd
#
# Track frame offsets:
#	150
#	14360
#	26266
#	45077
#	69120
#	90052
#	105924
#	119594
#	130396
#	143326
#	162601
#	175288
#	191077
#	207409
#	220346
#	232550
#	248080
#	264819
#
# Disc length: 3696 seconds
#
# Revision: 1
# Processed by: cddbd v1.5.2PL0 Copyright (c) Steve Scherf et al.
# Submitted via: audiograbber 1.83.01
#
DISCID=dc0e6e12
DTITLE=Wizz Jones - Lucky the Man
DYEAR=1900
DGENRE=
TTITLE0=Weeping Willow Blues
TTITLE1=Semontte
TTITLE2=Lucky the Man
TTITLE3=Paris
TTITLE4=Omie Wise
TTITLE5=Mountain Rain
TTITLE6=In Stormy Weather
TTITLE7=Another Summertime
TTITLE8=Lullaby of Battersea
TTITLE9=Roving Cowboy (Ballad of Dan Moody)
TTITLE10=Funny But I Still Love You
TTITLE11=Blues Run The Game
TTITLE12=Would you Like to Take a Walk
TTITLE13=About a Spoonful
TTITLE14=The Dark Eyes Gypsies
TTITLE15=Planet Without a Plan
TTITLE16=The Moving On Song
TTITLE17=Sugar for Sugar
EXTD=
EXTT0=
EXTT1=
EXTT2=
EXTT3=
EXTT4=
EXTT5=
EXTT6=
EXTT7=
EXTT8=
EXTT9=
EXTT10=
EXTT11=
EXTT12=
EXTT13=
EXTT14=
EXTT15=
EXTT16=
EXTT17=
PLAYORDER=
